REM DIRINDEX 1\2\4,1\2\5,1\2\6,1\2\7,1\3\8,1\3\9
REM DIRNAME folder01,folder02,folder03,folder04,folder05,folder06,folder07,folder08,folder09
TITLE ""
FILE "Disc2Track20.mp3" MP3
  TRACK 01 AUDIO
    TITLE "0:"
    INDEX 01 00:00:00
  TRACK 02 AUDIO
    TITLE "8:cjc037_1520"
    INDEX 01 00:00:05
  TRACK 03 AUDIO
    TITLE "0:"
    INDEX 01 00:01:71
  TRACK 04 AUDIO
    TITLE "9:cjc037_1521"
    INDEX 01 00:02:02
  TRACK 05 AUDIO
    TITLE "0:"
    INDEX 01 00:04:48
  TRACK 06 AUDIO
    TITLE "8:cjc037_1522"
    INDEX 01 00:07:07
  TRACK 07 AUDIO
    TITLE "0:"
    INDEX 01 00:08:72
  TRACK 08 AUDIO
    TITLE "9:cjc037_1523"
    INDEX 01 00:09:00
  TRACK 09 AUDIO
    TITLE "0:"
    INDEX 01 00:11:29
  TRACK 10 AUDIO
    TITLE "8:cjc037_1524"
    INDEX 01 00:13:65
  TRACK 11 AUDIO
    TITLE "0:"
    INDEX 01 00:15:52
  TRACK 12 AUDIO
    TITLE "9:cjc037_1525"
    INDEX 01 00:15:58
  TRACK 13 AUDIO
    TITLE "0:"
    INDEX 01 00:18:19
  TRACK 14 AUDIO
    TITLE "8:cjc037_1526"
    INDEX 01 00:20:55
  TRACK 15 AUDIO
    TITLE "0:"
    INDEX 01 00:22:38
  TRACK 16 AUDIO
    TITLE "9:cjc037_1527"
    INDEX 01 00:22:44
  TRACK 17 AUDIO
    TITLE "0:"
    INDEX 01 00:24:49
  TRACK 18 AUDIO
    TITLE "8:cjc037_1528"
    INDEX 01 00:27:06
  TRACK 19 AUDIO
    TITLE "0:"
    INDEX 01 00:28:74
  TRACK 20 AUDIO
    TITLE "9:cjc037_1529"
    INDEX 01 00:29:03
  TRACK 21 AUDIO
    TITLE "0:"
    INDEX 01 00:31:22
  TRACK 22 AUDIO
    TITLE "8:cjc037_1530"
    INDEX 01 00:33:56
  TRACK 23 AUDIO
    TITLE "0:"
    INDEX 01 00:35:33
  TRACK 24 AUDIO
    TITLE "9:cjc037_1531"
    INDEX 01 00:35:37
  TRACK 25 AUDIO
    TITLE "0:"
    INDEX 01 00:38:30
  TRACK 26 AUDIO
    TITLE "8:cjc037_1532"
    INDEX 01 00:40:64
  TRACK 27 AUDIO
    TITLE "0:"
    INDEX 01 00:42:49
  TRACK 28 AUDIO
    TITLE "9:cjc037_1533"
    INDEX 01 00:42:55
  TRACK 29 AUDIO
    TITLE "0:"
    INDEX 01 00:44:46
  TRACK 30 AUDIO
    TITLE "8:cjc037_1534"
    INDEX 01 00:47:05
  TRACK 31 AUDIO
    TITLE "0:"
    INDEX 01 00:48:63
  TRACK 32 AUDIO
    TITLE "9:cjc037_1535"
    INDEX 01 00:48:69
  TRACK 33 AUDIO
    TITLE "0:"
    INDEX 01 00:52:26
  TRACK 34 AUDIO
    TITLE "8:cjc037_1536"
    INDEX 01 00:54:60
  TRACK 35 AUDIO
    TITLE "0:"
    INDEX 01 00:56:47
  TRACK 36 AUDIO
    TITLE "9:cjc037_1537"
    INDEX 01 00:56:51
  TRACK 37 AUDIO
    TITLE "0:"
    INDEX 01 00:59:02
  TRACK 38 AUDIO
    TITLE "8:cjc037_1538"
    INDEX 01 01:01:38
  TRACK 39 AUDIO
    TITLE "0:"
    INDEX 01 01:03:22
  TRACK 40 AUDIO
    TITLE "9:cjc037_1539"
    INDEX 01 01:03:27
  TRACK 41 AUDIO
    TITLE "0:"
    INDEX 01 01:06:20
  TRACK 42 AUDIO
    TITLE "8:cjc037_1540"
    INDEX 01 01:08:52
  TRACK 43 AUDIO
    TITLE "0:"
    INDEX 01 01:10:41
  TRACK 44 AUDIO
    TITLE "9:cjc037_1541"
    INDEX 01 01:10:47
  TRACK 45 AUDIO
    TITLE "0:"
    INDEX 01 01:13:49
  TRACK 46 AUDIO
    TITLE "8:cjc037_1542"
    INDEX 01 01:16:12
  TRACK 47 AUDIO
    TITLE "0:"
    INDEX 01 01:18:06
  TRACK 48 AUDIO
    TITLE "9:cjc037_1543"
    INDEX 01 01:18:09
  TRACK 49 AUDIO
    TITLE "0:"
    INDEX 01 01:21:02
  TRACK 50 AUDIO
    TITLE "8:cjc037_1544"
    INDEX 01 01:23:38
  TRACK 51 AUDIO
    TITLE "0:"
    INDEX 01 01:25:29
  TRACK 52 AUDIO
    TITLE "9:cjc037_1545"
    INDEX 01 01:25:33
  TRACK 53 AUDIO
    TITLE "0:"
    INDEX 01 01:28:16
  TRACK 54 AUDIO
    TITLE "8:cjc037_1546"
    INDEX 01 01:30:52
  TRACK 55 AUDIO
    TITLE "0:"
    INDEX 01 01:32:41
  TRACK 56 AUDIO
    TITLE "9:cjc037_1547"
    INDEX 01 01:32:47
  TRACK 57 AUDIO
    TITLE "0:"
    INDEX 01 01:35:35
  TRACK 58 AUDIO
    TITLE "8:cjc037_1548"
    INDEX 01 01:37:71
  TRACK 59 AUDIO
    TITLE "0:"
    INDEX 01 01:39:63
  TRACK 60 AUDIO
    TITLE "9:cjc037_1549"
    INDEX 01 01:39:66
  TRACK 61 AUDIO
    TITLE "0:"
    INDEX 01 01:42:10
  TRACK 62 AUDIO
    TITLE "8:cjc037_1550"
    INDEX 01 01:44:46
  TRACK 63 AUDIO
    TITLE "0:"
    INDEX 01 01:46:25
  TRACK 64 AUDIO
    TITLE "9:cjc037_1551"
    INDEX 01 01:46:31
  TRACK 65 AUDIO
    TITLE "0:"
    INDEX 01 01:48:32
  TRACK 66 AUDIO
    TITLE "8:cjc037_1552"
    INDEX 01 01:50:66
  TRACK 67 AUDIO
    TITLE "0:"
    INDEX 01 01:52:59
  TRACK 68 AUDIO
    TITLE "9:cjc037_1553"
    INDEX 01 01:52:65
  TRACK 69 AUDIO
    TITLE "0:"
    INDEX 01 01:55:67
  TRACK 70 AUDIO
    TITLE "8:cjc037_1554"
    INDEX 01 01:58:29
  TRACK 71 AUDIO
    TITLE "0:"
    INDEX 01 02:00:18
  TRACK 72 AUDIO
    TITLE "9:cjc037_1555"
    INDEX 01 02:00:24
  TRACK 73 AUDIO
    TITLE "0:"
    INDEX 01 02:02:54
  TRACK 74 AUDIO
    TITLE "8:cjc037_1556"
    INDEX 01 02:05:13
  TRACK 75 AUDIO
    TITLE "0:"
    INDEX 01 02:07:08
  TRACK 76 AUDIO
    TITLE "9:cjc037_1557"
    INDEX 01 02:07:14
  TRACK 77 AUDIO
    TITLE "0:"
    INDEX 01 02:11:12
  TRACK 78 AUDIO
    TITLE "8:cjc037_1558"
    INDEX 01 02:13:46
  TRACK 79 AUDIO
    TITLE "0:"
    INDEX 01 02:15:35
  TRACK 80 AUDIO
    TITLE "9:cjc037_1559"
    INDEX 01 02:15:43
  TRACK 81 AUDIO
    TITLE "0:"
    INDEX 01 02:18:74
  TRACK 82 AUDIO
    TITLE "8:cjc037_1560"
    INDEX 01 02:21:33
  TRACK 83 AUDIO
    TITLE "0:"
    INDEX 01 02:23:32
  TRACK 84 AUDIO
    TITLE "9:cjc037_1561"
    INDEX 01 02:23:36
  TRACK 85 AUDIO
    TITLE "0:"
    INDEX 01 02:25:70
  TRACK 86 AUDIO
    TITLE "8:cjc037_1562"
    INDEX 01 02:28:32
  TRACK 87 AUDIO
    TITLE "0:"
    INDEX 01 02:30:32
  TRACK 88 AUDIO
    TITLE "9:cjc037_1563"
    INDEX 01 02:30:38
  TRACK 89 AUDIO
    TITLE "0:"
    INDEX 01 02:33:60
  TRACK 90 AUDIO
    TITLE "8:cjc037_1564"
    INDEX 01 02:36:17
  TRACK 91 AUDIO
    TITLE "0:"
    INDEX 01 02:38:14
  TRACK 92 AUDIO
    TITLE "9:cjc037_1565"
    INDEX 01 02:38:20
  TRACK 93 AUDIO
    TITLE "0:"
    INDEX 01 02:41:48
  TRACK 94 AUDIO
    TITLE "8:cjc037_1566"
    INDEX 01 02:44:09
  TRACK 95 AUDIO
    TITLE "0:"
    INDEX 01 02:46:06
  TRACK 96 AUDIO
    TITLE "9:cjc037_1567"
    INDEX 01 02:46:08
  TRACK 97 AUDIO
    TITLE "0:"
    INDEX 01 02:49:38
  TRACK 98 AUDIO
    TITLE "8:cjc037_1568"
    INDEX 01 02:51:74
  TRACK 99 AUDIO
    TITLE "0:"
    INDEX 01 02:53:65
  TRACK 100 AUDIO
    TITLE "9:cjc037_1569"
    INDEX 01 02:53:71
  TRACK 101 AUDIO
    TITLE "0:"
    INDEX 01 02:57:04
